HIERARCHY
ROOT Hips
{
	OFFSET	0.00	0.00	0.00
	CHANNELS 6 Xposition Yposition Zposition Zrotation Xrotation Yrotation
	JOINT LeftUpLeg
	{
		OFFSET	 0.126116	-0.014019	-0.065224
		CHANNELS 3 Zrotation Xrotation Yrotation
		JOINT LeftLeg
		{
			OFFSET	 0.000000	 0.000000	 0.569914
			CHANNELS 3 Zrotation Xrotation Yrotation
			JOINT LeftFoot
			{
				OFFSET	 0.000000	 0.000000	 0.544423
				CHANNELS 3 Zrotation Xrotation Yrotation
				JOINT LeftToeBase
				{
					OFFSET	 0.000000	 0.000000	 0.207117
					CHANNELS 3 Zrotation Xrotation Yrotation
					End Site
					{
						OFFSET	 0.000000	 0.000000	 0.207117
					}
				}
			}
		}
	}
	JOINT RightUpLeg
	{
		OFFSET	-0.124023	-0.008373	-0.065224
		CHANNELS 3 Zrotation Xrotation Yrotation
		JOINT RightLeg
		{
			OFFSET	 0.000000	 0.000000	 0.570047
			CHANNELS 3 Zrotation Xrotation Yrotation
			JOINT RightFoot
			{
				OFFSET	 0.000000	 0.000000	 0.544354
				CHANNELS 3 Zrotation Xrotation Yrotation
				JOINT RightToeBase
				{
					OFFSET	 0.000000	 0.000000	 0.207540
					CHANNELS 3 Zrotation Xrotation Yrotation
					End Site
					{
						OFFSET	 0.000000	 0.000000	 0.207540
					}
				}
			}
		}
	}
	JOINT Spine
	{
		OFFSET	 0.000184	-0.007763	 0.117403
		CHANNELS 3 Zrotation Xrotation Yrotation
		JOINT Spine1
		{
			OFFSET	 0.000000	 0.000000	 0.137269
			CHANNELS 3 Zrotation Xrotation Yrotation
			JOINT Spine2
			{
				OFFSET	 0.000000	 0.000000	 0.156879
				CHANNELS 3 Zrotation Xrotation Yrotation
				JOINT LeftShoulder
				{
					OFFSET	 0.080501	-0.002496	 0.160144
					CHANNELS 3 Zrotation Xrotation Yrotation
					JOINT LeftArm
					{
						OFFSET	 0.000000	 0.000000	 0.164363
						CHANNELS 3 Zrotation Xrotation Yrotation
						JOINT LeftForeArm
						{
							OFFSET	 0.000000	 0.000000	 0.364576
							CHANNELS 3 Zrotation Xrotation Yrotation
							JOINT LeftHand
							{
								OFFSET	 0.000000	 0.000000	 0.360812
								CHANNELS 3 Zrotation Xrotation Yrotation
								JOINT LeftHandIndex1
								{
									OFFSET	 0.000000	 0.000000	 0.086006
									CHANNELS 3 Zrotation Xrotation Yrotation
									JOINT LeftHandIndex2
									{
										OFFSET	 0.000000	 0.000000	 0.047236
										CHANNELS 3 Zrotation Xrotation Yrotation
										JOINT LeftHandIndex3
										{
											OFFSET	-0.004284	-0.000551	 0.038166
											CHANNELS 3 Zrotation Xrotation Yrotation
											End Site
											{
												OFFSET	-0.004284	-0.000551	 0.038166
											}
										}
									}
								}
							}
						}
					}
				}
				JOINT Neck
				{
					OFFSET	 0.000000	 0.000000	 0.176489
					CHANNELS 3 Zrotation Xrotation Yrotation
					JOINT Head
					{
						OFFSET	 0.000000	-0.001747	 0.077940
						CHANNELS 3 Zrotation Xrotation Yrotation
						End Site
						{
							OFFSET	 0.000000	-0.001747	 0.077940
						}
					}
				}
				JOINT RightShoulder
				{
					OFFSET	-0.080363	 0.000306	 0.159706
					CHANNELS 3 Zrotation Xrotation Yrotation
					JOINT RightArm
					{
						OFFSET	 0.000000	 0.000000	 0.164196
						CHANNELS 3 Zrotation Xrotation Yrotation
						JOINT RightForeArm
						{
							OFFSET	 0.000000	 0.000000	 0.365611
							CHANNELS 3 Zrotation Xrotation Yrotation
							JOINT RightHand
							{
								OFFSET	 0.000000	 0.000000	 0.360648
								CHANNELS 3 Zrotation Xrotation Yrotation
								JOINT RightHandIndex1
								{
									OFFSET	 0.000000	 0.000000	 0.069977
									CHANNELS 3 Zrotation Xrotation Yrotation
									JOINT RightHandIndex2
									{
										OFFSET	 0.000000	 0.000000	 0.052305
										CHANNELS 3 Zrotation Xrotation Yrotation
										JOINT RightHandIndex3
										{
											OFFSET	 0.009002	-0.000782	 0.042196
											CHANNELS 3 Zrotation Xrotation Yrotation
											End Site
											{
												OFFSET	 0.009002	-0.000782	 0.042196
											}
										}
									}
								}
							}
						}
					}
				}
			}
		}
	}
}
MOTION
Frames:    7
Frame Time: 0.03333334
-12.504040	-36.241940	 0.838659	-40.044690	 9.923949	 3.170130	 5.690422	-20.836430	 175.231800	-4.139274	-37.070200	-0.935843	-1.109911	 83.938390	-0.431162	-2.333735	 36.454850	-0.184371	-2.119699	-22.722360	-178.938800	-1.941044	-41.111800	-0.988174	-1.485903	 87.703050	 0.719034	 2.395495	 25.509620	-0.061154	-0.799141	 5.231746	-1.538020	-1.248508	 3.968934	-2.143258	-1.852900	 1.530017	-0.097878	-101.993800	 88.666750	-167.125200	 60.444630	 69.807150	-69.696140	-5.982660	-4.476297	-18.817770	 7.793970	-2.255123	-5.311396	-1.715084	-11.666500	 7.795326	-5.213516	-0.193813	 3.566525	-1.378229	 35.397820	-2.634230	 0.640098	 1.323735	 0.627414	-0.173477	 3.053726	 0.189031	 96.345200	 87.870540	 170.568500	-57.223750	 77.968960	 69.558920	-1.908274	-13.864150	 23.898510	-27.465370	-3.197275	 9.565957	-7.867396	-4.230464	-38.215470	 5.070815	-0.697434	-9.399699	-2.350882	 35.473990	 5.254307
-12.504300	-36.242990	 0.833335	-40.138710	 9.506746	 3.102504	 5.636011	-20.715150	 175.450000	-4.208213	-36.262330	-0.952799	-1.151957	 83.499200	-0.458613	-2.333752	 36.452930	-0.184323	-2.041851	-22.704030	-178.936500	-2.004003	-40.376680	-0.990291	-1.498714	 87.062690	 0.687322	 2.393748	 26.050590	-0.049826	-0.775244	 5.276641	-1.536352	-1.218614	 3.857350	-2.063349	-1.814066	 1.474521	-0.096701	-101.583600	 88.593890	-167.482200	 54.810260	 68.108370	-64.778140	-4.937321	-4.329560	-17.944380	 7.825065	-2.259452	-5.309624	-1.821290	-11.060430	 7.596754	-5.213516	-0.193813	 3.566525	-1.378229	 35.397820	-2.634230	 0.687577	 1.269613	 0.603182	-0.150443	 3.013540	 0.315369	 96.570760	 87.888080	 170.274600	-50.459970	 75.812050	 63.839630	-2.002678	-12.782070	 23.293590	-25.913840	-3.197550	 9.565504	-7.434585	-4.176427	-37.151240	 5.070815	-0.697434	-9.399699	-2.350882	 35.473990	 5.254307
-12.503480	-36.241280	 0.838747	-40.181760	 9.369864	 3.079049	 5.572196	-20.529540	 175.423000	-4.307567	-36.390640	-1.057039	-1.215389	 83.545140	-0.530338	-2.331899	 36.660610	-0.189477	-1.911964	-22.467760	-178.943900	-2.013526	-40.317180	-0.921159	-1.527517	 86.831090	 0.785889	 2.393841	 26.021250	-0.050442	-0.784909	 5.357154	-1.538821	-1.203721	 3.967522	-2.057129	-1.762084	 1.550873	-0.092759	-101.454100	 88.594030	-167.647000	 54.368230	 68.147240	-64.227070	-4.830088	-4.300352	-17.579630	 7.941731	-2.267485	-5.306030	-2.101543	-11.262330	 6.926249	-5.213516	-0.193813	 3.566525	-1.378229	 35.397820	-2.634230	 0.737674	 1.365396	 0.652047	-0.094078	 3.066725	 0.373905	 96.628140	 87.903140	 170.218300	-51.058490	 75.715500	 64.411070	-2.183477	-12.749390	 23.201400	-25.936910	-3.198154	 9.564555	-7.411698	-4.226829	-37.054280	 5.070815	-0.697434	-9.399699	-2.350882	 35.473990	 5.254307
-12.505050	-36.242030	 0.838350	-40.130370	 9.206016	 3.029978	 5.509474	-20.356960	 175.400800	-4.326724	-36.466800	-1.110147	-1.250466	 83.620160	-0.565410	-2.330089	 36.861390	-0.194476	-1.807951	-22.067020	-178.964100	-1.970235	-39.862580	-0.837347	-1.520122	 86.573490	 0.864320	 2.394686	 25.764590	-0.055824	-0.822775	 5.397097	-1.532097	-1.215677	 4.101531	-2.052994	-1.722697	 1.673167	-0.088850	-101.271700	 88.602400	-167.896700	 53.917640	 68.277410	-63.669680	-4.779012	-4.277910	-17.201330	 8.093465	-2.277490	-5.301248	-2.624726	-11.492620	 5.693051	-5.213516	-0.193813	 3.566525	-1.378229	 35.397820	-2.634230	 0.765454	 1.439050	 0.687791	-0.035085	 3.231879	 0.426904	 96.709110	 87.921800	 170.134700	-51.589750	 75.662190	 64.859120	-2.338443	-12.720950	 23.121010	-25.957400	-3.198633	 9.563638	-7.377104	-4.247317	-36.950100	 5.070815	-0.697434	-9.399699	-2.350882	 35.473990	 5.254307
-12.507270	-36.242970	 0.838036	-39.984890	 9.058869	 2.958493	 5.436406	-20.177980	 175.381100	-4.304831	-36.500260	-1.142114	-1.297640	 83.707920	-0.563037	-2.328216	 37.065630	-0.199592	-1.730369	-21.425250	-178.989600	-1.827982	-39.087750	-0.710749	-1.429680	 86.427800	 0.922718	 2.395269	 25.583310	-0.059618	-0.900229	 5.363922	-1.521588	-1.264284	 4.263394	-2.046758	-1.696298	 1.842953	-0.084979	-101.004800	 88.612100	-168.256400	 53.488050	 68.449070	-63.129710	-4.730769	-4.257648	-16.791510	 8.278968	-2.290166	-5.294880	-3.238378	-11.719330	 4.259177	-5.213516	-0.193813	 3.566525	-1.378229	 35.397820	-2.634230	 0.769298	 1.532994	 0.737115	 0.028874	 3.467632	 0.426759	 96.831900	 87.948530	 170.007000	-52.068050	 75.645260	 65.185700	-2.484076	-12.692710	 23.042950	-25.976140	-3.199041	 9.562820	-7.330712	-4.242872	-36.834560	 5.070815	-0.697434	-9.399699	-2.350882	 35.473990	 5.254307
-12.509820	-36.244010	 0.837833	-39.779240	 8.955268	 2.870531	 5.351807	-20.001700	 175.365300	-4.242896	-36.487840	-1.153638	-1.331423	 83.778710	-0.549510	-2.326372	 37.264210	-0.204576	-1.731930	-20.647670	-178.976000	-1.588021	-38.143510	-0.571906	-1.298241	 86.425540	 0.974799	 2.393847	 26.018470	-0.050503	-0.999365	 5.276333	-1.510247	-1.336391	 4.429809	-2.036365	-1.684458	 2.036446	-0.081548	-100.657300	 88.615490	-168.703700	 53.162780	 68.613790	-62.704490	-4.666488	-4.239223	-16.395940	 8.470506	-2.301234	-5.289215	-3.507011	-11.858710	 3.634301	-5.213516	-0.193813	 3.566525	-1.378229	 35.397820	-2.634230	 0.754199	 1.633698	 0.802162	 0.087495	 3.741201	 0.366114	 97.002580	 87.985310	 169.830700	-52.423900	 75.665940	 65.325440	-2.610469	-12.665410	 22.971370	-25.990470	-3.199382	 9.562274	-7.278267	-4.214989	-36.721030	 5.070815	-0.697434	-9.399699	-2.350882	 35.473990	 5.254307
-12.512470	-36.244900	 0.837744	-39.554410	 8.899367	 2.786602	 5.253594	-19.831120	 175.353500	-4.161858	-36.433690	-1.158470	-1.369753	 83.807040	-0.523719	-2.324691	 37.441780	-0.209060	-1.843768	-19.896150	-179.017100	-1.281476	-37.185410	-0.463110	-1.398252	 86.530440	 1.242309	 2.391480	 26.697130	-0.036198	-1.095643	 5.169064	-1.515141	-1.408998	 4.580220	-2.020412	-1.679854	 2.230134	-0.078490	-100.245000	 88.604360	-169.206300	 52.886620	 68.816230	-62.373210	-4.669946	-4.222900	-16.045820	 8.647783	-2.309403	-5.284708	-3.381606	-11.910800	 3.923685	-5.213516	-0.193813	 3.566525	-1.378229	 35.397820	-2.634230	 0.733648	 1.729392	 0.877174	 0.138245	 4.021585	 0.291211	 97.228810	 88.033780	 169.600100	-52.674450	 75.710470	 65.329610	-2.715319	-12.638550	 22.906840	-25.999030	-3.199610	 9.562027	-7.224981	-4.168441	-36.619160	 5.070815	-0.697434	-9.399699	-2.350882	 35.473990	 5.254307
